<svg id="レイヤー_1" data-name="レイヤー 1" xmlns="http://www.w3.org/2000/svg" viewBox="0 0 450 66"><defs><style>.cls-1{fill:#ed1c24;}</style></defs><title>1</title><path d="M50.09,64H37.3V37.47H12.78V64H0V5.65H12.78v22.2H37.3V5.65H50.09Z"/><path d="M101.23,64H89.42V58.19c-3.66,3.12-6.6,5.08-8.86,5.87a21.7,21.7,0,0,1-7.22,1.19,13.34,13.34,0,0,1-9.77-3.83,13.18,13.18,0,0,1-3.88-9.82q0-7.59,5.71-11.5t24.13-4.89V34c0-2.82-1-4.85-2.91-6.12S81.48,26,77,26c-3,0-7.42,1.15-13.1,3.49H63.5V20.07A69.66,69.66,0,0,1,79.77,17.9q11.36,0,16.4,3.66t5.06,11.64ZM89.42,53.12V41.81q-11.7,1-14.66,3a6.49,6.49,0,0,0-2.94,5.63c0,2.55.69,4.34,2.06,5.35s3.51,1.51,6.44,1.51S86.42,55.91,89.42,53.12Z"/><path d="M143.5,31.3h-.39a26.74,26.74,0,0,0-6.42-.62,32.32,32.32,0,0,0-11.63,2V64H113.17V19.17h11.89v8.14a41.31,41.31,0,0,1,9-6.6A16,16,0,0,1,141,19c.6,0,1.43,0,2.52.08Z"/><path d="M190.92,64H179V58.15q-5.82,4.73-8.77,5.93a16.32,16.32,0,0,1-6.3,1.2A14.47,14.47,0,0,1,151.67,59q-4.57-6.24-4.56-17t5.53-17.38a17.19,17.19,0,0,1,13.76-6.69,20.19,20.19,0,0,1,5.39.67A40,40,0,0,1,179,21.78V3.06h11.88ZM179,52.54V28.24a18.45,18.45,0,0,0-7.21-1.67q-12.4,0-12.4,15.12,0,7.64,2.54,11c1.71,2.26,4.39,3.4,8,3.4C172.74,56.1,175.75,54.9,179,52.54Z"/><path d="M314.4,64H273.88V5.65h12.78v48.7H314.4Z"/><path d="M359,64H347.17V58.19c-3.63,3.12-6.59,5.08-8.85,5.87a21.74,21.74,0,0,1-7.22,1.19,13.35,13.35,0,0,1-9.77-3.83,13.21,13.21,0,0,1-3.87-9.82q0-7.59,5.71-11.5t24.13-4.89V34c0-2.82-1-4.85-2.91-6.12S339.25,26,334.78,26c-3,0-7.41,1.15-13.1,3.49h-.42V20.07a69.78,69.78,0,0,1,16.26-2.17c7.58,0,13,1.22,16.42,3.66S359,27.88,359,33.2ZM347.17,53.12V41.81q-11.7,1-14.63,3a6.45,6.45,0,0,0-3,5.63c0,2.55.67,4.34,2.05,5.35s3.52,1.51,6.44,1.51S344.18,55.91,347.17,53.12Z"/><path d="M367.87,61.91v-11h.46q8,6.48,16.89,6.48t9-4.88a3.47,3.47,0,0,0-1.39-3,14.49,14.49,0,0,0-5.05-1.85q-2.5-.46-7.16-1.51a20.59,20.59,0,0,1-7.3-2.91,11.67,11.67,0,0,1-3.93-4.49,13.63,13.63,0,0,1-1.28-6.08A12.53,12.53,0,0,1,373.79,22q5.7-4.09,15.3-4.1a37.81,37.81,0,0,1,15.31,3V31.38h-.32q-7.77-5.53-15.06-5.55a12.89,12.89,0,0,0-6.27,1.4c-1.69.93-2.52,2.09-2.52,3.49a3.89,3.89,0,0,0,1.56,3.44A17,17,0,0,0,387,36.07c3.12.57,6.25,1.25,9.35,2.06a14.07,14.07,0,0,1,7.31,4.23,11.41,11.41,0,0,1,2.67,7.85,12.84,12.84,0,0,1-5.78,11q-5.8,4.11-15.64,4.1A40.45,40.45,0,0,1,367.87,61.91Z"/><path d="M411.49,61.91v-11H412q8,6.48,16.89,6.48c6,0,9-1.63,9-4.88a3.47,3.47,0,0,0-1.39-3,14.67,14.67,0,0,0-5-1.85q-2.52-.46-7.17-1.51a20.57,20.57,0,0,1-7.31-2.91A11.67,11.67,0,0,1,413,38.74a13.77,13.77,0,0,1-1.29-6.08A12.53,12.53,0,0,1,417.42,22q5.7-4.09,15.3-4.1a37.73,37.73,0,0,1,15.3,3V31.38h-.3q-7.8-5.53-15.07-5.55a12.93,12.93,0,0,0-6.28,1.4q-2.52,1.39-2.52,3.49a3.9,3.9,0,0,0,1.57,3.44,17,17,0,0,0,5.24,1.91c3.14.57,6.25,1.25,9.34,2.06a14.2,14.2,0,0,1,7.34,4.23A11.45,11.45,0,0,1,450,50.21a12.87,12.87,0,0,1-5.78,11q-5.81,4.11-15.65,4.1A40.48,40.48,0,0,1,411.49,61.91Z"/><path class="cls-1" d="M240.22,43.9V39.44h24.31a34.21,34.21,0,0,0,.56-4.2H240.22V30.77h24.87a34.21,34.21,0,0,0-.56-4.2H240.22V22.11h23.09a32.63,32.63,0,1,0,0,21.79Z"/></svg>